<mxfile host="Electron" modified="2023-07-06T11:52:05.030Z" agent="Mozilla/5.0 (Macintosh; Intel Mac OS X 10_15_7) AppleWebKit/537.36 (KHTML, like Gecko) draw.io/21.6.1 Chrome/112.0.5615.204 Electron/24.6.1 Safari/537.36" etag="5PDDAsu4D8UIc_KZWhuk" version="21.6.1" type="device">
  <diagram name="Page-1" id="0fY4fIKSZo-GE6OCrPNR">
    <mxGraphModel dx="1493" dy="1140" grid="1" gridSize="10" guides="1" tooltips="1" connect="1" arrows="1" fold="1" page="1" pageScale="1" pageWidth="1169" pageHeight="827" math="0" shadow="0">
      <root>
        <mxCell id="0" />
        <mxCell id="1" parent="0" />
        <mxCell id="vn9ZUetdtOLam17VPIby-39" value="" style="rounded=1;whiteSpace=wrap;html=1;" parent="1" vertex="1">
          <mxGeometry x="10" y="20" width="1080" height="750" as="geometry" />
        </mxCell>
        <mxCell id="vn9ZUetdtOLam17VPIby-12" value="&lt;b style=&quot;border-color: var(--border-color);&quot;&gt;&lt;font style=&quot;border-color: var(--border-color); font-size: 16px;&quot;&gt;Sidecar container&lt;/font&gt;&lt;/b&gt;" style="swimlane;fontStyle=0;childLayout=stackLayout;horizontal=1;startSize=30;horizontalStack=0;resizeParent=1;resizeParentMax=0;resizeLast=0;collapsible=1;marginBottom=0;whiteSpace=wrap;html=1;fillColor=#dae8fc;strokeColor=#6c8ebf;" parent="1" vertex="1">
          <mxGeometry x="670" y="380" width="350" height="150" as="geometry" />
        </mxCell>
        <mxCell id="vn9ZUetdtOLam17VPIby-15" value="SIDECAR_PORT" style="text;strokeColor=none;fillColor=none;align=left;verticalAlign=middle;spacingLeft=4;spacingRight=4;overflow=hidden;points=[[0,0.5],[1,0.5]];portConstraint=eastwest;rotatable=0;whiteSpace=wrap;html=1;fontSize=16;" parent="vn9ZUetdtOLam17VPIby-12" vertex="1">
          <mxGeometry y="30" width="350" height="30" as="geometry" />
        </mxCell>
        <mxCell id="aqR3Z5xt4Hw7nxsVFmtl-36" value="Handle incoming messages" style="text;strokeColor=none;fillColor=none;align=left;verticalAlign=middle;spacingLeft=4;spacingRight=4;overflow=hidden;points=[[0,0.5],[1,0.5]];portConstraint=eastwest;rotatable=0;whiteSpace=wrap;html=1;fontSize=16;" vertex="1" parent="vn9ZUetdtOLam17VPIby-12">
          <mxGeometry y="60" width="350" height="30" as="geometry" />
        </mxCell>
        <mxCell id="vn9ZUetdtOLam17VPIby-14" value="Handles access to key-value store" style="text;strokeColor=none;fillColor=none;align=left;verticalAlign=middle;spacingLeft=4;spacingRight=4;overflow=hidden;points=[[0,0.5],[1,0.5]];portConstraint=eastwest;rotatable=0;whiteSpace=wrap;html=1;fontSize=16;" parent="vn9ZUetdtOLam17VPIby-12" vertex="1">
          <mxGeometry y="90" width="350" height="30" as="geometry" />
        </mxCell>
        <mxCell id="vn9ZUetdtOLam17VPIby-13" value="Handle outgoing results" style="text;strokeColor=none;fillColor=none;align=left;verticalAlign=middle;spacingLeft=4;spacingRight=4;overflow=hidden;points=[[0,0.5],[1,0.5]];portConstraint=eastwest;rotatable=0;whiteSpace=wrap;html=1;fontSize=16;" parent="vn9ZUetdtOLam17VPIby-12" vertex="1">
          <mxGeometry y="120" width="350" height="30" as="geometry" />
        </mxCell>
        <mxCell id="vn9ZUetdtOLam17VPIby-33" value="&lt;b&gt;&lt;font style=&quot;font-size: 16px;&quot;&gt;Data Service 1&lt;/font&gt;&lt;/b&gt;" style="swimlane;fontStyle=0;childLayout=stackLayout;horizontal=1;startSize=30;horizontalStack=0;resizeParent=1;resizeParentMax=0;resizeLast=0;collapsible=1;marginBottom=0;whiteSpace=wrap;html=1;fillColor=#d5e8d4;strokeColor=#82b366;" parent="1" vertex="1">
          <mxGeometry x="100" y="40" width="309" height="180" as="geometry">
            <mxRectangle x="370" y="354" width="140" height="30" as="alternateBounds" />
          </mxGeometry>
        </mxCell>
        <mxCell id="aqR3Z5xt4Hw7nxsVFmtl-29" value="Is first" style="text;strokeColor=none;fillColor=none;align=left;verticalAlign=middle;spacingLeft=4;spacingRight=4;overflow=hidden;points=[[0,0.5],[1,0.5]];portConstraint=eastwest;rotatable=0;whiteSpace=wrap;html=1;fontSize=16;" vertex="1" parent="vn9ZUetdtOLam17VPIby-33">
          <mxGeometry y="30" width="309" height="30" as="geometry" />
        </mxCell>
        <mxCell id="aqR3Z5xt4Hw7nxsVFmtl-10" value="Set up RPC server (&lt;span style=&quot;border-color: var(--border-color);&quot;&gt;SIDECAR_PORT)&lt;/span&gt;" style="text;strokeColor=none;fillColor=none;align=left;verticalAlign=middle;spacingLeft=4;spacingRight=4;overflow=hidden;points=[[0,0.5],[1,0.5]];portConstraint=eastwest;rotatable=0;whiteSpace=wrap;html=1;fontSize=16;" vertex="1" parent="vn9ZUetdtOLam17VPIby-33">
          <mxGeometry y="60" width="309" height="30" as="geometry" />
        </mxCell>
        <mxCell id="aqR3Z5xt4Hw7nxsVFmtl-13" value="Process message" style="text;strokeColor=none;fillColor=none;align=left;verticalAlign=middle;spacingLeft=4;spacingRight=4;overflow=hidden;points=[[0,0.5],[1,0.5]];portConstraint=eastwest;rotatable=0;whiteSpace=wrap;html=1;fontSize=16;" vertex="1" parent="vn9ZUetdtOLam17VPIby-33">
          <mxGeometry y="90" width="309" height="30" as="geometry" />
        </mxCell>
        <mxCell id="aqR3Z5xt4Hw7nxsVFmtl-14" value="Send result (DESIGNATED_PORT + 1)" style="text;strokeColor=none;fillColor=none;align=left;verticalAlign=middle;spacingLeft=4;spacingRight=4;overflow=hidden;points=[[0,0.5],[1,0.5]];portConstraint=eastwest;rotatable=0;whiteSpace=wrap;html=1;fontSize=16;" vertex="1" parent="vn9ZUetdtOLam17VPIby-33">
          <mxGeometry y="120" width="309" height="30" as="geometry" />
        </mxCell>
        <mxCell id="aqR3Z5xt4Hw7nxsVFmtl-27" value="Exit" style="text;strokeColor=none;fillColor=none;align=left;verticalAlign=middle;spacingLeft=4;spacingRight=4;overflow=hidden;points=[[0,0.5],[1,0.5]];portConstraint=eastwest;rotatable=0;whiteSpace=wrap;html=1;fontSize=16;" vertex="1" parent="vn9ZUetdtOLam17VPIby-33">
          <mxGeometry y="150" width="309" height="30" as="geometry" />
        </mxCell>
        <mxCell id="vn9ZUetdtOLam17VPIby-41" value="&lt;b&gt;&lt;font style=&quot;font-size: 20px;&quot;&gt;Data processing pod&lt;/font&gt;&lt;/b&gt;" style="text;html=1;strokeColor=none;fillColor=none;align=center;verticalAlign=middle;whiteSpace=wrap;rounded=0;" parent="1" vertex="1">
          <mxGeometry x="461.5" y="787" width="223" height="36" as="geometry" />
        </mxCell>
        <mxCell id="vn9ZUetdtOLam17VPIby-55" value="&lt;b&gt;1&lt;/b&gt;" style="ellipse;whiteSpace=wrap;html=1;aspect=fixed;strokeWidth=2;fontFamily=Tahoma;spacingBottom=4;spacingRight=2;strokeColor=#82b366;fontSize=14;fillColor=#d5e8d4;" parent="1" vertex="1">
          <mxGeometry x="570" y="260" width="30" height="30" as="geometry" />
        </mxCell>
        <mxCell id="vn9ZUetdtOLam17VPIby-56" value="" style="sketch=0;html=1;dashed=0;whitespace=wrap;fillColor=#2875E2;strokeColor=#ffffff;points=[[0.005,0.63,0],[0.1,0.2,0],[0.9,0.2,0],[0.5,0,0],[0.995,0.63,0],[0.72,0.99,0],[0.5,1,0],[0.28,0.99,0]];verticalLabelPosition=bottom;align=center;verticalAlign=top;shape=mxgraph.kubernetes.icon;prIcon=pod" parent="1" vertex="1">
          <mxGeometry x="415.5" y="774" width="50" height="48" as="geometry" />
        </mxCell>
        <mxCell id="vn9ZUetdtOLam17VPIby-61" value="&lt;b&gt;4&lt;/b&gt;" style="ellipse;whiteSpace=wrap;html=1;aspect=fixed;strokeWidth=2;fontFamily=Tahoma;spacingBottom=4;spacingRight=2;strokeColor=#9673a6;fontSize=14;fillColor=#e1d5e7;" parent="1" vertex="1">
          <mxGeometry x="480" y="710" width="30" height="30" as="geometry" />
        </mxCell>
        <mxCell id="aqR3Z5xt4Hw7nxsVFmtl-11" style="edgeStyle=orthogonalEdgeStyle;rounded=0;orthogonalLoop=1;jettySize=auto;html=1;entryX=0;entryY=0.5;entryDx=0;entryDy=0;fillColor=#d5e8d4;strokeColor=#82b366;strokeWidth=3;startArrow=classic;startFill=1;" edge="1" parent="1" source="aqR3Z5xt4Hw7nxsVFmtl-10" target="aqR3Z5xt4Hw7nxsVFmtl-36">
          <mxGeometry relative="1" as="geometry">
            <Array as="points">
              <mxPoint x="560" y="115" />
              <mxPoint x="560" y="455" />
            </Array>
          </mxGeometry>
        </mxCell>
        <mxCell id="aqR3Z5xt4Hw7nxsVFmtl-16" value="&lt;b&gt;&lt;font style=&quot;font-size: 16px;&quot;&gt;Data Service 2&lt;/font&gt;&lt;/b&gt;" style="swimlane;fontStyle=0;childLayout=stackLayout;horizontal=1;startSize=30;horizontalStack=0;resizeParent=1;resizeParentMax=0;resizeLast=0;collapsible=1;marginBottom=0;whiteSpace=wrap;html=1;fillColor=#fff2cc;strokeColor=#d6b656;" vertex="1" parent="1">
          <mxGeometry x="100" y="320" width="340" height="150" as="geometry">
            <mxRectangle x="370" y="354" width="140" height="30" as="alternateBounds" />
          </mxGeometry>
        </mxCell>
        <mxCell id="aqR3Z5xt4Hw7nxsVFmtl-34" value="&lt;meta charset=&quot;utf-8&quot;&gt;&lt;span style=&quot;border-color: var(--border-color); color: rgb(0, 0, 0); font-family: Helvetica; font-size: 16px; font-style: normal; font-variant-ligatures: normal; font-variant-caps: normal; font-weight: 400; letter-spacing: normal; orphans: 2; text-align: left; text-indent: 0px; text-transform: none; widows: 2; word-spacing: 0px; -webkit-text-stroke-width: 0px; text-decoration-thickness: initial; text-decoration-style: initial; text-decoration-color: initial; background-color: rgb(251, 251, 251); float: none; display: inline !important;&quot;&gt;Set up RPC server (&lt;/span&gt;&lt;span style=&quot;color: rgb(0, 0, 0); font-family: Helvetica; font-size: 16px; font-style: normal; font-variant-ligatures: normal; font-variant-caps: normal; font-weight: 400; letter-spacing: normal; orphans: 2; text-align: left; text-indent: 0px; text-transform: none; widows: 2; word-spacing: 0px; -webkit-text-stroke-width: 0px; background-color: rgb(251, 251, 251); text-decoration-thickness: initial; text-decoration-style: initial; text-decoration-color: initial; float: none; display: inline !important;&quot;&gt;DESIGNATED_PORT)&lt;/span&gt;" style="text;strokeColor=none;fillColor=none;align=left;verticalAlign=middle;spacingLeft=4;spacingRight=4;overflow=hidden;points=[[0,0.5],[1,0.5]];portConstraint=eastwest;rotatable=0;whiteSpace=wrap;html=1;fontSize=16;" vertex="1" parent="aqR3Z5xt4Hw7nxsVFmtl-16">
          <mxGeometry y="30" width="340" height="30" as="geometry" />
        </mxCell>
        <mxCell id="aqR3Z5xt4Hw7nxsVFmtl-19" value="Process result" style="text;strokeColor=none;fillColor=none;align=left;verticalAlign=middle;spacingLeft=4;spacingRight=4;overflow=hidden;points=[[0,0.5],[1,0.5]];portConstraint=eastwest;rotatable=0;whiteSpace=wrap;html=1;fontSize=16;" vertex="1" parent="aqR3Z5xt4Hw7nxsVFmtl-16">
          <mxGeometry y="60" width="340" height="30" as="geometry" />
        </mxCell>
        <mxCell id="aqR3Z5xt4Hw7nxsVFmtl-20" value="Send result (DESIGNATED_PORT + 1)" style="text;strokeColor=none;fillColor=none;align=left;verticalAlign=middle;spacingLeft=4;spacingRight=4;overflow=hidden;points=[[0,0.5],[1,0.5]];portConstraint=eastwest;rotatable=0;whiteSpace=wrap;html=1;fontSize=16;" vertex="1" parent="aqR3Z5xt4Hw7nxsVFmtl-16">
          <mxGeometry y="90" width="340" height="30" as="geometry" />
        </mxCell>
        <mxCell id="aqR3Z5xt4Hw7nxsVFmtl-28" value="&lt;meta charset=&quot;utf-8&quot;&gt;&lt;span style=&quot;color: rgb(0, 0, 0); font-family: Helvetica; font-size: 16px; font-style: normal; font-variant-ligatures: normal; font-variant-caps: normal; font-weight: 400; letter-spacing: normal; orphans: 2; text-align: left; text-indent: 0px; text-transform: none; widows: 2; word-spacing: 0px; -webkit-text-stroke-width: 0px; background-color: rgb(251, 251, 251); text-decoration-thickness: initial; text-decoration-style: initial; text-decoration-color: initial; float: none; display: inline !important;&quot;&gt;Exit&lt;/span&gt;" style="text;strokeColor=none;fillColor=none;align=left;verticalAlign=middle;spacingLeft=4;spacingRight=4;overflow=hidden;points=[[0,0.5],[1,0.5]];portConstraint=eastwest;rotatable=0;whiteSpace=wrap;html=1;fontSize=16;" vertex="1" parent="aqR3Z5xt4Hw7nxsVFmtl-16">
          <mxGeometry y="120" width="340" height="30" as="geometry" />
        </mxCell>
        <mxCell id="aqR3Z5xt4Hw7nxsVFmtl-21" style="edgeStyle=orthogonalEdgeStyle;rounded=0;orthogonalLoop=1;jettySize=auto;html=1;entryX=0;entryY=0.5;entryDx=0;entryDy=0;strokeWidth=3;fillColor=#d5e8d4;strokeColor=#82b366;" edge="1" parent="1" source="aqR3Z5xt4Hw7nxsVFmtl-14" target="aqR3Z5xt4Hw7nxsVFmtl-19">
          <mxGeometry relative="1" as="geometry">
            <Array as="points">
              <mxPoint x="80" y="175" />
              <mxPoint x="80" y="395" />
            </Array>
          </mxGeometry>
        </mxCell>
        <mxCell id="aqR3Z5xt4Hw7nxsVFmtl-22" value="&lt;b&gt;&lt;font style=&quot;font-size: 16px;&quot;&gt;Data Service 3&lt;/font&gt;&lt;/b&gt;" style="swimlane;fontStyle=0;childLayout=stackLayout;horizontal=1;startSize=30;horizontalStack=0;resizeParent=1;resizeParentMax=0;resizeLast=0;collapsible=1;marginBottom=0;whiteSpace=wrap;html=1;fillColor=#e1d5e7;strokeColor=#9673a6;" vertex="1" parent="1">
          <mxGeometry x="100" y="570" width="350" height="180" as="geometry">
            <mxRectangle x="370" y="354" width="140" height="30" as="alternateBounds" />
          </mxGeometry>
        </mxCell>
        <mxCell id="aqR3Z5xt4Hw7nxsVFmtl-30" value="Is last" style="text;strokeColor=none;fillColor=none;align=left;verticalAlign=middle;spacingLeft=4;spacingRight=4;overflow=hidden;points=[[0,0.5],[1,0.5]];portConstraint=eastwest;rotatable=0;whiteSpace=wrap;html=1;fontSize=16;" vertex="1" parent="aqR3Z5xt4Hw7nxsVFmtl-22">
          <mxGeometry y="30" width="350" height="30" as="geometry" />
        </mxCell>
        <mxCell id="aqR3Z5xt4Hw7nxsVFmtl-35" value="&lt;span style=&quot;color: rgb(0, 0, 0); font-family: Helvetica; font-size: 16px; font-style: normal; font-variant-ligatures: normal; font-variant-caps: normal; font-weight: 400; letter-spacing: normal; orphans: 2; text-align: left; text-indent: 0px; text-transform: none; widows: 2; word-spacing: 0px; -webkit-text-stroke-width: 0px; background-color: rgb(251, 251, 251); text-decoration-thickness: initial; text-decoration-style: initial; text-decoration-color: initial; float: none; display: inline !important;&quot;&gt;Set up RPC server (&lt;/span&gt;DESIGNATED_PORT)" style="text;strokeColor=none;fillColor=none;align=left;verticalAlign=middle;spacingLeft=4;spacingRight=4;overflow=hidden;points=[[0,0.5],[1,0.5]];portConstraint=eastwest;rotatable=0;whiteSpace=wrap;html=1;fontSize=16;" vertex="1" parent="aqR3Z5xt4Hw7nxsVFmtl-22">
          <mxGeometry y="60" width="350" height="30" as="geometry" />
        </mxCell>
        <mxCell id="aqR3Z5xt4Hw7nxsVFmtl-24" value="Process result" style="text;strokeColor=none;fillColor=none;align=left;verticalAlign=middle;spacingLeft=4;spacingRight=4;overflow=hidden;points=[[0,0.5],[1,0.5]];portConstraint=eastwest;rotatable=0;whiteSpace=wrap;html=1;fontSize=16;" vertex="1" parent="aqR3Z5xt4Hw7nxsVFmtl-22">
          <mxGeometry y="90" width="350" height="30" as="geometry" />
        </mxCell>
        <mxCell id="aqR3Z5xt4Hw7nxsVFmtl-32" value="Send result (SIDECAR_PORT)" style="text;strokeColor=none;fillColor=none;align=left;verticalAlign=middle;spacingLeft=4;spacingRight=4;overflow=hidden;points=[[0,0.5],[1,0.5]];portConstraint=eastwest;rotatable=0;whiteSpace=wrap;html=1;fontSize=16;" vertex="1" parent="aqR3Z5xt4Hw7nxsVFmtl-22">
          <mxGeometry y="120" width="350" height="30" as="geometry" />
        </mxCell>
        <mxCell id="aqR3Z5xt4Hw7nxsVFmtl-31" value="Exit" style="text;strokeColor=none;fillColor=none;align=left;verticalAlign=middle;spacingLeft=4;spacingRight=4;overflow=hidden;points=[[0,0.5],[1,0.5]];portConstraint=eastwest;rotatable=0;whiteSpace=wrap;html=1;fontSize=16;" vertex="1" parent="aqR3Z5xt4Hw7nxsVFmtl-22">
          <mxGeometry y="150" width="350" height="30" as="geometry" />
        </mxCell>
        <mxCell id="aqR3Z5xt4Hw7nxsVFmtl-26" style="edgeStyle=orthogonalEdgeStyle;rounded=0;orthogonalLoop=1;jettySize=auto;html=1;entryX=0;entryY=0.5;entryDx=0;entryDy=0;strokeWidth=3;fillColor=#fff2cc;strokeColor=#d6b656;" edge="1" parent="1" source="aqR3Z5xt4Hw7nxsVFmtl-20" target="aqR3Z5xt4Hw7nxsVFmtl-24">
          <mxGeometry relative="1" as="geometry">
            <Array as="points">
              <mxPoint x="80" y="425" />
              <mxPoint x="80" y="675" />
            </Array>
          </mxGeometry>
        </mxCell>
        <mxCell id="aqR3Z5xt4Hw7nxsVFmtl-33" style="edgeStyle=orthogonalEdgeStyle;rounded=0;orthogonalLoop=1;jettySize=auto;html=1;entryX=0;entryY=0.5;entryDx=0;entryDy=0;fillColor=#e1d5e7;strokeColor=#9673a6;strokeWidth=3;exitX=1;exitY=0.5;exitDx=0;exitDy=0;" edge="1" parent="1" source="aqR3Z5xt4Hw7nxsVFmtl-32" target="vn9ZUetdtOLam17VPIby-13">
          <mxGeometry relative="1" as="geometry" />
        </mxCell>
        <mxCell id="aqR3Z5xt4Hw7nxsVFmtl-38" style="edgeStyle=orthogonalEdgeStyle;rounded=0;orthogonalLoop=1;jettySize=auto;html=1;fillColor=#dae8fc;strokeColor=#6c8ebf;" edge="1" parent="1" source="aqR3Z5xt4Hw7nxsVFmtl-37" target="aqR3Z5xt4Hw7nxsVFmtl-36">
          <mxGeometry relative="1" as="geometry" />
        </mxCell>
        <mxCell id="aqR3Z5xt4Hw7nxsVFmtl-42" style="edgeStyle=orthogonalEdgeStyle;rounded=0;orthogonalLoop=1;jettySize=auto;html=1;startArrow=classic;startFill=1;endArrow=none;endFill=0;fillColor=#dae8fc;strokeColor=#6c8ebf;" edge="1" parent="1" source="aqR3Z5xt4Hw7nxsVFmtl-37">
          <mxGeometry relative="1" as="geometry">
            <mxPoint x="1150" y="455" as="targetPoint" />
          </mxGeometry>
        </mxCell>
        <mxCell id="aqR3Z5xt4Hw7nxsVFmtl-37" value="" style="strokeWidth=1;outlineConnect=0;dashed=0;align=center;html=1;fontSize=8;shape=mxgraph.eip.dataChannel;verticalLabelPosition=bottom;labelBackgroundColor=#ffffff;verticalAlign=top;" vertex="1" parent="1">
          <mxGeometry x="1050" y="445" width="60" height="20" as="geometry" />
        </mxCell>
        <mxCell id="aqR3Z5xt4Hw7nxsVFmtl-40" value="" style="endArrow=classic;html=1;rounded=0;exitX=1;exitY=0.5;exitDx=0;exitDy=0;fillColor=#dae8fc;strokeColor=#6c8ebf;strokeWidth=3;" edge="1" parent="1" source="vn9ZUetdtOLam17VPIby-13">
          <mxGeometry relative="1" as="geometry">
            <mxPoint x="1220" y="520" as="sourcePoint" />
            <mxPoint x="1160" y="515" as="targetPoint" />
          </mxGeometry>
        </mxCell>
        <mxCell id="aqR3Z5xt4Hw7nxsVFmtl-41" value="" style="shape=message;html=1;outlineConnect=0;fillColor=#dae8fc;strokeColor=#6c8ebf;strokeWidth=2;" vertex="1" parent="aqR3Z5xt4Hw7nxsVFmtl-40">
          <mxGeometry width="30" height="24" relative="1" as="geometry">
            <mxPoint x="-17" y="-12" as="offset" />
          </mxGeometry>
        </mxCell>
        <mxCell id="aqR3Z5xt4Hw7nxsVFmtl-44" value="&lt;b&gt;2&lt;/b&gt;" style="ellipse;whiteSpace=wrap;html=1;aspect=fixed;strokeWidth=2;fontFamily=Tahoma;spacingBottom=4;spacingRight=2;strokeColor=#82b366;fontSize=14;fillColor=#d5e8d4;" vertex="1" parent="1">
          <mxGeometry x="40" y="260" width="30" height="30" as="geometry" />
        </mxCell>
        <mxCell id="aqR3Z5xt4Hw7nxsVFmtl-45" value="&lt;b&gt;3&lt;/b&gt;" style="ellipse;whiteSpace=wrap;html=1;aspect=fixed;strokeWidth=2;fontFamily=Tahoma;spacingBottom=4;spacingRight=2;strokeColor=#d6b656;fontSize=14;fillColor=#fff2cc;" vertex="1" parent="1">
          <mxGeometry x="40" y="530" width="30" height="30" as="geometry" />
        </mxCell>
        <mxCell id="aqR3Z5xt4Hw7nxsVFmtl-46" value="&lt;b&gt;5&lt;/b&gt;" style="ellipse;whiteSpace=wrap;html=1;aspect=fixed;strokeWidth=2;fontFamily=Tahoma;spacingBottom=4;spacingRight=2;strokeColor=#6c8ebf;fontSize=14;fillColor=#dae8fc;" vertex="1" parent="1">
          <mxGeometry x="1040" y="522" width="30" height="30" as="geometry" />
        </mxCell>
        <mxCell id="aqR3Z5xt4Hw7nxsVFmtl-50" value="Ports example:" style="swimlane;fontStyle=0;childLayout=stackLayout;horizontal=1;startSize=30;horizontalStack=0;resizeParent=1;resizeParentMax=0;resizeLast=0;collapsible=1;marginBottom=0;whiteSpace=wrap;html=1;" vertex="1" parent="1">
          <mxGeometry x="740" y="40" width="280" height="150" as="geometry" />
        </mxCell>
        <mxCell id="aqR3Z5xt4Hw7nxsVFmtl-51" value="SIDECAR_PORT: localhost:50051" style="text;strokeColor=none;fillColor=none;align=left;verticalAlign=middle;spacingLeft=4;spacingRight=4;overflow=hidden;points=[[0,0.5],[1,0.5]];portConstraint=eastwest;rotatable=0;whiteSpace=wrap;html=1;" vertex="1" parent="aqR3Z5xt4Hw7nxsVFmtl-50">
          <mxGeometry y="30" width="280" height="30" as="geometry" />
        </mxCell>
        <mxCell id="aqR3Z5xt4Hw7nxsVFmtl-52" value="Service 1: DESIGNATED_PORT localhost:50052" style="text;strokeColor=none;fillColor=none;align=left;verticalAlign=middle;spacingLeft=4;spacingRight=4;overflow=hidden;points=[[0,0.5],[1,0.5]];portConstraint=eastwest;rotatable=0;whiteSpace=wrap;html=1;" vertex="1" parent="aqR3Z5xt4Hw7nxsVFmtl-50">
          <mxGeometry y="60" width="280" height="30" as="geometry" />
        </mxCell>
        <mxCell id="aqR3Z5xt4Hw7nxsVFmtl-53" value="Service 2:&amp;nbsp;DESIGNATED_PORT localhost:50053" style="text;strokeColor=none;fillColor=none;align=left;verticalAlign=middle;spacingLeft=4;spacingRight=4;overflow=hidden;points=[[0,0.5],[1,0.5]];portConstraint=eastwest;rotatable=0;whiteSpace=wrap;html=1;" vertex="1" parent="aqR3Z5xt4Hw7nxsVFmtl-50">
          <mxGeometry y="90" width="280" height="30" as="geometry" />
        </mxCell>
        <mxCell id="aqR3Z5xt4Hw7nxsVFmtl-55" value="Service 3:&amp;nbsp;DESIGNATED_PORT localhost:50054" style="text;strokeColor=none;fillColor=none;align=left;verticalAlign=middle;spacingLeft=4;spacingRight=4;overflow=hidden;points=[[0,0.5],[1,0.5]];portConstraint=eastwest;rotatable=0;whiteSpace=wrap;html=1;" vertex="1" parent="aqR3Z5xt4Hw7nxsVFmtl-50">
          <mxGeometry y="120" width="280" height="30" as="geometry" />
        </mxCell>
      </root>
    </mxGraphModel>
  </diagram>
</mxfile>
